<?xml version="1.0" encoding="utf-8"?>
<!-- Generator: Adobe Illustrator 16.0.0, SVG Export Plug-In . SVG Version: 6.00 Build 0)  -->
<!DOCTYPE svg PUBLIC "-//W3C//DTD SVG 1.1//EN" "http://www.w3.org/Graphics/SVG/1.1/DTD/svg11.dtd">
<svg version="1.1" id="图层_1" xmlns="http://www.w3.org/2000/svg" xmlns:xlink="http://www.w3.org/1999/xlink" x="0px" y="0px"
	 width="595.275px" height="595.275px" viewBox="0 0 595.275 595.275" enable-background="new 0 0 595.275 595.275"
	 xml:space="preserve">
<g>
	<text transform="matrix(1 0 0 1 228.6851 158.2676)" fill="#474747" font-family="'SimHei'" font-size="14">某公司全年手机销售情况</text>
</g>
<rect x="73.686" y="281.712" fill="#C9C9C9" width="132.272" height="140.029"/>
<g>
	<text transform="matrix(1 0 0 1 73.6855 419.7212)" fill="#FFFFFF" font-family="'SimHei'" font-size="10">10月,4800</text>
</g>
<rect x="73.686" y="189.272" fill="#C9C9C9" width="132.272" height="89.641"/>
<g>
	<text transform="matrix(1 0 0 1 73.6855 276.894)" fill="#FFFFFF" font-family="'SimHei'" font-size="10">7月,3200</text>
</g>
<rect x="208.329" y="302.61" fill="#C9C9C9" width="90.802" height="119.131"/>
<g>
	<text transform="matrix(1 0 0 1 208.3281 419.7227)" fill="#FFFFFF" font-family="'SimHei'" font-size="10">9月,2900</text>
</g>
<rect x="208.329" y="189.274" fill="#C9C9C9" width="90.802" height="110.752"/>
<g>
	<text transform="matrix(1 0 0 1 208.3281 298.0068)" fill="#FFFFFF" font-family="'SimHei'" font-size="10">2月,2800</text>
</g>
<rect x="409.861" y="189.271" fill="#C9C9C9" width="112.991" height="80.838"/>
<g>
	<text transform="matrix(1 0 0 1 409.8604 268.0913)" fill="#FFFFFF" font-family="'SimHei'" font-size="10">6月,2500</text>
</g>
<rect x="301.823" y="189.271" fill="#C9C9C9" width="105.344" height="80.838"/>
<g>
	<text transform="matrix(1 0 0 1 301.8232 268.0913)" fill="#FFFFFF" font-family="'SimHei'" font-size="10">5月,2250</text>
</g>
<rect x="416.162" y="272.803" fill="#C9C9C9" width="106.69" height="78.643"/>
<g>
	<text transform="matrix(1 0 0 1 416.1616 349.4263)" fill="#FFFFFF" font-family="'SimHei'" font-size="10">11月,2250</text>
</g>
<rect x="301.824" y="353.912" fill="#C9C9C9" width="106.69" height="67.828"/>
<g>
	<text transform="matrix(1 0 0 1 301.8232 419.7212)" fill="#FFFFFF" font-family="'SimHei'" font-size="10">12月,2000</text>
</g>
<rect x="301.825" y="272.803" fill="#C9C9C9" width="57.035" height="78.643"/>
<g>
	<text transform="matrix(1 0 0 1 301.8242 337.8838)"><tspan x="0" y="0" fill="#FFFFFF" font-family="'SimHei'" font-size="10">3月,</tspan><tspan x="0" y="12" fill="#FFFFFF" font-family="'SimHei'" font-size="10">1250</tspan></text>
</g>
<rect x="411.583" y="353.912" fill="#C9C9C9" width="57.035" height="67.828"/>
<g>
	<text transform="matrix(1 0 0 1 411.583 408.1787)"><tspan x="0" y="0" fill="#FFFFFF" font-family="'SimHei'" font-size="10">8月,</tspan><tspan x="0" y="12" fill="#FFFFFF" font-family="'SimHei'" font-size="10">1100</tspan></text>
</g>
<rect x="361.929" y="272.803" fill="#C9C9C9" width="51.164" height="78.643"/>
<g>
	<text transform="matrix(1 0 0 1 361.9287 337.8838)"><tspan x="0" y="0" fill="#FFFFFF" font-family="'SimHei'" font-size="10">1月,</tspan><tspan x="0" y="12" fill="#FFFFFF" font-family="'SimHei'" font-size="10">1150</tspan></text>
</g>
<rect x="471.688" y="353.912" fill="#C9C9C9" width="51.164" height="67.828"/>
<g>
	<text transform="matrix(1 0 0 1 471.6875 408.1787)"><tspan x="0" y="0" fill="#FFFFFF" font-family="'SimHei'" font-size="10">4月,</tspan><tspan x="0" y="12" fill="#FFFFFF" font-family="'SimHei'" font-size="10">1000</tspan></text>
</g>
</svg>
