<?xml version="1.0" encoding="utf-8"?>
<!-- Generator: Adobe Illustrator 16.0.0, SVG Export Plug-In . SVG Version: 6.00 Build 0)  -->
<!DOCTYPE svg PUBLIC "-//W3C//DTD SVG 1.1//EN" "http://www.w3.org/Graphics/SVG/1.1/DTD/svg11.dtd">
<svg version="1.1" id="图层_1" xmlns="http://www.w3.org/2000/svg" xmlns:xlink="http://www.w3.org/1999/xlink" x="0px" y="0px"
	 width="595.275px" height="595.275px" viewBox="0 0 595.275 595.275" enable-background="new 0 0 595.275 595.275"
	 xml:space="preserve">
<rect x="369.58" y="189.271" fill="#0952D0" width="132.272" height="140.029"/>
<rect x="369.58" y="332.1" fill="#3775DF" width="132.272" height="89.641"/>
<rect x="276.407" y="189.271" fill="#3775DF" width="90.803" height="119.131"/>
<rect x="276.407" y="310.988" fill="#3775DF" width="90.803" height="110.752"/>
<rect x="160.724" y="189.271" fill="#6399F6" width="112.991" height="89.838"/>
<rect x="52.687" y="189.271" fill="#6399F6" width="105.344" height="89.838"/>
<rect x="167.024" y="281.504" fill="#6399F6" width="106.69" height="69.941"/>
<rect x="167.024" y="353.912" fill="#6399F6" width="106.69" height="67.828"/>
<rect x="106.92" y="281.504" fill="#6399F6" width="57.035" height="69.941"/>
<rect x="106.92" y="353.912" fill="#8EB7FE" width="57.035" height="67.828"/>
<rect x="52.687" y="281.504" fill="#8EB7FE" width="51.164" height="69.941"/>
<rect x="52.687" y="353.912" fill="#C7DBFF" width="51.164" height="67.828"/>
<g>
	<text transform="matrix(1 0 0 1 228.6855 158.2676)" fill="#474747" font-family="'SimHei'" font-size="14">某公司全年手机销售情况</text>
</g>
<g>
	<text transform="matrix(1 0 0 1 369.5796 327.7373)" fill="#FFFFFF" font-family="'SimHei'" font-size="10">9月,4800</text>
</g>
<g>
	<text transform="matrix(1 0 0 1 369.5796 420.1787)" fill="#FFFFFF" font-family="'SimHei'" font-size="10">6月,3200</text>
</g>
<g>
	<text transform="matrix(1 0 0 1 276.4072 306.8398)" fill="#FFFFFF" font-family="'SimHei'" font-size="10">12月,2900</text>
</g>
<g>
	<text transform="matrix(1 0 0 1 276.4072 420.1768)" fill="#FFFFFF" font-family="'SimHei'" font-size="10">11月,2800</text>
</g>
<g>
	<text transform="matrix(1 0 0 1 160.7231 277.5459)" fill="#FFFFFF" font-family="'SimHei'" font-size="10">1月,2600</text>
</g>
<g>
	<text transform="matrix(1 0 0 1 52.6855 277.5459)" fill="#FFFFFF" font-family="'SimHei'" font-size="10">4月,2350</text>
</g>
<g>
	<text transform="matrix(1 0 0 1 167.0244 349.8838)" fill="#FFFFFF" font-family="'SimHei'" font-size="10">5月,2150</text>
</g>
<g>
	<text transform="matrix(1 0 0 1 167.0244 420.1787)" fill="#FFFFFF" font-family="'SimHei'" font-size="10">2月,2000</text>
</g>
<g>
	<text transform="matrix(1 0 0 1 106.9199 337.8828)"><tspan x="0" y="0" fill="#FFFFFF" font-family="'SimHei'" font-size="10">10月,</tspan><tspan x="0" y="12" fill="#FFFFFF" font-family="'SimHei'" font-size="10">1150</tspan></text>
</g>
<g>
	<text transform="matrix(1 0 0 1 106.9199 408.1777)"><tspan x="0" y="0" fill="#FFFFFF" font-family="'SimHei'" font-size="10">8月,</tspan><tspan x="0" y="12" fill="#FFFFFF" font-family="'SimHei'" font-size="10">1100</tspan></text>
</g>
<g>
	<text transform="matrix(1 0 0 1 52.6855 337.8828)"><tspan x="0" y="0" fill="#FFFFFF" font-family="'SimHei'" font-size="10">7月,</tspan><tspan x="0" y="12" fill="#FFFFFF" font-family="'SimHei'" font-size="10">1050</tspan></text>
</g>
<g>
	<text transform="matrix(1 0 0 1 52.6855 408.1777)"><tspan x="0" y="0" fill="#FFFFFF" font-family="'SimHei'" font-size="10">3月,</tspan><tspan x="0" y="12" fill="#FFFFFF" font-family="'SimHei'" font-size="10">1000</tspan></text>
</g>
<text transform="matrix(1 0 0 1 529.8535 229.1094)" fill="#AAAAAA" font-family="'Helvetica'" font-size="10">40K</text>
<text transform="matrix(1 0 0 1 529.8535 199.7002)" fill="#AAAAAA" font-family="'Helvetica'" font-size="10">50K</text>
<text transform="matrix(1 0 0 1 529.8535 259.1094)" fill="#AAAAAA" font-family="'Helvetica'" font-size="10">30K</text>
<text transform="matrix(1 0 0 1 529.8535 289.1094)" fill="#AAAAAA" font-family="'Helvetica'" font-size="10">20K</text>
<text transform="matrix(1 0 0 1 529.8535 319.1094)" fill="#AAAAAA" font-family="'Helvetica'" font-size="10">10K</text>
<text transform="matrix(1 0 0 1 529.8535 349.1094)" fill="#AAAAAA" font-family="'Helvetica'" font-size="10">0</text>
<rect id="Rectangle_111_" x="521.853" y="191.109" fill="#0952D0" width="4" height="29"/>
<rect id="Rectangle_110_" x="521.853" y="221.109" fill="#3775DF" width="4" height="29"/>
<rect id="Rectangle_109_" x="521.853" y="251.109" fill="#6399F6" width="4" height="29"/>
<rect id="Rectangle_108_" x="521.853" y="281.109" fill="#8EB7FE" width="4" height="29.001"/>
<rect id="Rectangle_107_" x="521.853" y="311.11" fill="#C7DBFF" width="4" height="29"/>
</svg>
