<?xml version="1.0" encoding="utf-8"?>
<!-- Generator: Adobe Illustrator 16.0.0, SVG Export Plug-In . SVG Version: 6.00 Build 0)  -->
<!DOCTYPE svg PUBLIC "-//W3C//DTD SVG 1.1//EN" "http://www.w3.org/Graphics/SVG/1.1/DTD/svg11.dtd">
<svg version="1.1" id="图层_1" xmlns="http://www.w3.org/2000/svg" xmlns:xlink="http://www.w3.org/1999/xlink" x="0px" y="0px"
	 width="595.275px" height="595.275px" viewBox="0 0 595.275 595.275" enable-background="new 0 0 595.275 595.275"
	 xml:space="preserve">
<g>
	<text transform="matrix(1 0 0 1 228.6851 158.2676)" fill="#474747" font-family="'SimHei'" font-size="14">某公司全年手机销售情况</text>
</g>
<rect x="73.686" y="302.026" fill="#64B5F6" width="132.272" height="119.714"/>
<g>
	<text transform="matrix(1 0 0 1 73.6855 419.7207)" fill="#FFFFFF" font-family="'SimHei'" font-size="10">12月,4300</text>
</g>
<rect x="73.686" y="189.271" fill="#8D8D8D" width="132.272" height="110.752"/>
<g>
	<text transform="matrix(1 0 0 1 73.6855 298.0039)" fill="#FFFFFF" font-family="'SimHei'" font-size="10">8月,3800</text>
</g>
<rect x="208.329" y="302.026" fill="#D34843" width="90.802" height="119.651"/>
<g>
	<text transform="matrix(1 0 0 1 208.3281 419.6592)" fill="#FFFFFF" font-family="'SimHei'" font-size="10">1月,2900</text>
</g>
<rect x="208.329" y="189.271" fill="#74AC4B" width="90.802" height="110.752"/>
<g>
	<text transform="matrix(1 0 0 1 208.3281 298.0039)" fill="#FFFFFF" font-family="'SimHei'" font-size="10">10月,2800</text>
</g>
<rect x="409.861" y="189.271" fill="#EB815A" width="112.991" height="80.838"/>
<g>
	<text transform="matrix(1 0 0 1 409.8604 268.0918)" fill="#FFFFFF" font-family="'SimHei'" font-size="10">3月,2500</text>
</g>
<rect x="301.824" y="189.271" fill="#FD671B" width="105.344" height="80.838"/>
<g>
	<text transform="matrix(1 0 0 1 301.8242 268.0918)" fill="#FFFFFF" font-family="'SimHei'" font-size="10">5月,2250</text>
</g>
<rect x="422.49" y="272.803" fill="#3786C8" width="100.362" height="78.643"/>
<g>
	<text transform="matrix(1 0 0 1 422.4897 349.4258)" fill="#FFFFFF" font-family="'SimHei'" font-size="10">7月,2150</text>
</g>
<rect x="422.49" y="353.912" fill="#FFB07B" width="100.362" height="67.828"/>
<g>
	<text transform="matrix(1 0 0 1 422.4897 419.7207)" fill="#FFFFFF" font-family="'SimHei'" font-size="10">9月,1900</text>
</g>
<rect x="301.824" y="272.803" fill="#88B7C1" width="64.935" height="78.643"/>
<g>
	<text transform="matrix(1 0 0 1 301.8237 337.8838)"><tspan x="0" y="0" fill="#FFFFFF" font-family="'SimHei'" font-size="10">2月,</tspan><tspan x="0" y="12" fill="#FFFFFF" font-family="'SimHei'" font-size="10">1350</tspan></text>
</g>
<rect x="301.823" y="353.912" fill="#ED7E2F" width="64.935" height="67.828"/>
<g>
	<text transform="matrix(1 0 0 1 301.8232 408.1787)"><tspan x="0" y="0" fill="#FFFFFF" font-family="'SimHei'" font-size="10">6月,</tspan><tspan x="0" y="12" fill="#FFFFFF" font-family="'SimHei'" font-size="10">1200</tspan></text>
</g>
<rect x="369.262" y="272.803" fill="#FFBD00" width="51.164" height="78.643"/>
<g>
	<text transform="matrix(1 0 0 1 369.2612 337.8838)"><tspan x="0" y="0" fill="#FFFFFF" font-family="'SimHei'" font-size="10">11月,</tspan><tspan x="0" y="12" fill="#FFFFFF" font-family="'SimHei'" font-size="10">1150</tspan></text>
</g>
<rect x="369.261" y="353.912" fill="#2FEAB8" width="51.164" height="67.828"/>
<g>
	<text transform="matrix(1 0 0 1 369.2603 408.1787)"><tspan x="0" y="0" fill="#FFFFFF" font-family="'SimHei'" font-size="10">4月,</tspan><tspan x="0" y="12" fill="#FFFFFF" font-family="'SimHei'" font-size="10">1000</tspan></text>
</g>
</svg>
