<?xml version="1.0" encoding="utf-8"?>
<!-- Generator: Adobe Illustrator 16.0.0, SVG Export Plug-In . SVG Version: 6.00 Build 0)  -->
<!DOCTYPE svg PUBLIC "-//W3C//DTD SVG 1.1//EN" "http://www.w3.org/Graphics/SVG/1.1/DTD/svg11.dtd">
<svg version="1.1" id="图层_1" xmlns="http://www.w3.org/2000/svg" xmlns:xlink="http://www.w3.org/1999/xlink" x="0px" y="0px"
	 width="595.275px" height="595.275px" viewBox="0 0 595.275 595.275" enable-background="new 0 0 595.275 595.275"
	 xml:space="preserve">
<g>
	<text transform="matrix(1 0 0 1 203.791 189.7402)" fill="#474747" font-family="'SimHei'" font-size="14">2017年不同鞋类的价格变化汇总</text>
</g>
<g>
	<text transform="matrix(1 0 0 1 277.792 402.8506)" fill="#474747" font-family="'SimHei'" font-size="12">不同鞋类</text>
</g>
<g>
	<text transform="matrix(1 0 0 1 81.6172 364.8975)" fill="#333333" font-family="'SimHei'" font-size="10">50</text>
</g>
<text transform="matrix(1 0 0 1 119.8145 377.3975)" fill="#333333" font-family="'SimHei'" font-size="10">雨鞋</text>
<text transform="matrix(1 0 0 1 81.6172 349.5205)" fill="#333333" font-family="'SimHei'" font-size="10">75</text>
<text transform="matrix(1 0 0 1 76.6172 334.1416)" fill="#333333" font-family="'SimHei'" font-size="10">100</text>
<text transform="matrix(1 0 0 1 76.6172 318.7646)" fill="#333333" font-family="'SimHei'" font-size="10">125</text>
<text transform="matrix(1 0 0 1 76.6172 303.3857)" fill="#333333" font-family="'SimHei'" font-size="10">150</text>
<text transform="matrix(1 0 0 1 76.6172 288.0088)" fill="#333333" font-family="'SimHei'" font-size="10">175</text>
<text transform="matrix(1 0 0 1 76.6172 272.6299)" fill="#333333" font-family="'SimHei'" font-size="10">200</text>
<text transform="matrix(1 0 0 1 195.8145 377.3975)" fill="#333333" font-family="'SimHei'" font-size="10">布鞋</text>
<text transform="matrix(1 0 0 1 271.8145 377.3975)" fill="#333333" font-family="'SimHei'" font-size="10">皮鞋</text>
<text transform="matrix(1 0 0 1 342.8145 377.3975)" fill="#333333" font-family="'SimHei'" font-size="10">运动鞋</text>
<text transform="matrix(1 0 0 1 418.8145 377.3975)" fill="#333333" font-family="'SimHei'" font-size="10">篮球鞋</text>
<text transform="matrix(1 0 0 1 499.8145 377.3975)" fill="#333333" font-family="'SimHei'" font-size="10">板鞋</text>
<text transform="matrix(1 0 0 1 61.0908 265.6963)" writing-mode="tb"><tspan x="0" y="0" fill="#474747" font-family="'SimHei'" font-size="12" glyph-orientation-vertical="0">价格</tspan><tspan x="0" y="24" fill="#474747" font-family="'SimHei'" font-size="12" glyph-orientation-vertical="1">(</tspan><tspan x="0" y="30" fill="#474747" font-family="'SimHei'" font-size="12" glyph-orientation-vertical="0">美元</tspan><tspan x="0" y="54" fill="#474747" font-family="'SimHei'" font-size="12" glyph-orientation-vertical="1">)</tspan></text>
<text transform="matrix(1 0 0 1 76.6172 257.2549)" fill="#333333" font-family="'SimHei'" font-size="10">225</text>
<text transform="matrix(1 0 0 1 76.6172 241.8799)" fill="#333333" font-family="'SimHei'" font-size="10">250</text>
<text transform="matrix(1 0 0 1 76.6172 226.5049)" fill="#333333" font-family="'SimHei'" font-size="10">275</text>
<g>
	<rect id="Rectangle-421-Copy-57_143_" x="101.616" y="360.897" fill="#EEEEEE" width="432.569" height="1"/>
	<rect id="Rectangle-421-Copy-57_142_" x="101.616" y="345.521" fill="#EEEEEE" width="432.569" height="1"/>
	<rect id="Rectangle-421-Copy-57_141_" x="101.616" y="330.142" fill="#EEEEEE" width="432.569" height="1"/>
	<rect id="Rectangle-421-Copy-57_140_" x="101.616" y="314.765" fill="#EEEEEE" width="432.569" height="1"/>
	<rect id="Rectangle-421-Copy-57_139_" x="101.616" y="299.386" fill="#EEEEEE" width="432.569" height="1"/>
	<rect id="Rectangle-421-Copy-57_138_" x="101.616" y="284.009" fill="#EEEEEE" width="432.569" height="1"/>
	<rect id="Rectangle-421-Copy-57_137_" x="101.616" y="268.63" fill="#EEEEEE" width="432.569" height="1"/>
	<rect id="Rectangle-421-Copy-57_136_" x="101.616" y="253.255" fill="#EEEEEE" width="432.569" height="1"/>
	<rect id="Rectangle-421-Copy-57_135_" x="101.616" y="237.88" fill="#EEEEEE" width="432.569" height="1"/>
	<rect id="Rectangle-421-Copy-57_134_" x="101.616" y="222.505" fill="#EEEEEE" width="432.569" height="1"/>
</g>
<line fill="none" stroke="#64B5F6" stroke-width="0.75" stroke-miterlimit="10" x1="205.814" y1="238.472" x2="205.814" y2="244.058"/>
<line fill="none" stroke="#64B5F6" stroke-width="0.75" stroke-miterlimit="10" x1="205.814" y1="284.124" x2="205.814" y2="278.468"/>
<rect x="196.255" y="244.058" fill="#64B5F6" width="19.118" height="34.41"/>
<line fill="none" stroke="#FFFFFF" stroke-width="0.75" stroke-miterlimit="10" x1="196.255" y1="269.13" x2="215.373" y2="269.13"/>
<line fill="none" stroke="#64B5F6" stroke-width="0.75" stroke-miterlimit="10" x1="200.893" y1="238.472" x2="210.735" y2="238.472"/>
<line fill="none" stroke="#64B5F6" stroke-width="0.75" stroke-miterlimit="10" x1="210.735" y1="284.124" x2="200.893" y2="284.124"/>
<text transform="matrix(1 0 0 1 211.7246 239.4717)" fill="#919191" font-family="'SimHei'" font-size="6">250</text>
<text transform="matrix(1 0 0 1 216.9434 245.1904)" fill="#919191" font-family="'SimHei'" font-size="6">240</text>
<text transform="matrix(1 0 0 1 216.9434 270.3057)" fill="#919191" font-family="'SimHei'" font-size="6">200</text>
<text transform="matrix(1 0 0 1 216.9434 279.5303)" fill="#919191" font-family="'SimHei'" font-size="6">185</text>
<text transform="matrix(1 0 0 1 210.7246 286.2803)" fill="#919191" font-family="'SimHei'" font-size="6">175</text>
<line fill="none" stroke="#64B5F6" stroke-width="0.75" stroke-miterlimit="10" x1="131.042" y1="253.896" x2="131.042" y2="259.481"/>
<line fill="none" stroke="#64B5F6" stroke-width="0.75" stroke-miterlimit="10" x1="131.042" y1="315.187" x2="131.042" y2="311.319"/>
<rect x="121.481" y="259.481" fill="#64B5F6" width="19.119" height="51.838"/>
<line fill="none" stroke="#FFFFFF" stroke-width="0.75" stroke-miterlimit="10" x1="121.481" y1="299.983" x2="140.601" y2="299.983"/>
<line fill="none" stroke="#64B5F6" stroke-width="0.75" stroke-miterlimit="10" x1="126.12" y1="253.896" x2="135.962" y2="253.896"/>
<line fill="none" stroke="#64B5F6" stroke-width="0.75" stroke-miterlimit="10" x1="135.962" y1="315.187" x2="126.12" y2="315.187"/>
<text transform="matrix(1 0 0 1 137.0527 254.8955)" fill="#919191" font-family="'SimHei'" font-size="6">225</text>
<text transform="matrix(1 0 0 1 142.2715 260.6143)" fill="#919191" font-family="'SimHei'" font-size="6">215</text>
<text transform="matrix(1 0 0 1 142.2715 301.0322)" fill="#919191" font-family="'SimHei'" font-size="6">150</text>
<text transform="matrix(1 0 0 1 142.2715 312.3818)" fill="#919191" font-family="'SimHei'" font-size="6">130</text>
<text transform="matrix(1 0 0 1 136.0527 317.3428)" fill="#919191" font-family="'SimHei'" font-size="6">125</text>
<line fill="none" stroke="#64B5F6" stroke-width="0.75" stroke-miterlimit="10" x1="433.878" y1="238.669" x2="433.878" y2="253.466"/>
<line fill="none" stroke="#64B5F6" stroke-width="0.75" stroke-miterlimit="10" x1="433.878" y1="299.792" x2="433.878" y2="284.509"/>
<rect x="424.317" y="253.466" fill="#64B5F6" width="19.119" height="31.043"/>
<line fill="none" stroke="#FFFFFF" stroke-width="0.75" stroke-miterlimit="10" x1="424.317" y1="276.044" x2="443.437" y2="276.044"/>
<line fill="none" stroke="#64B5F6" stroke-width="0.75" stroke-miterlimit="10" x1="428.956" y1="238.669" x2="438.798" y2="238.669"/>
<line fill="none" stroke="#64B5F6" stroke-width="0.75" stroke-miterlimit="10" x1="438.798" y1="299.792" x2="428.956" y2="299.792"/>
<text transform="matrix(1 0 0 1 439.7637 239.6689)" fill="#919191" font-family="'SimHei'" font-size="6">250</text>
<text transform="matrix(1 0 0 1 444.9824 254.5986)" fill="#919191" font-family="'SimHei'" font-size="6">225</text>
<text transform="matrix(1 0 0 1 444.9824 277.0947)" fill="#919191" font-family="'SimHei'" font-size="6">190</text>
<text transform="matrix(1 0 0 1 444.9824 285.5713)" fill="#919191" font-family="'SimHei'" font-size="6">175</text>
<text transform="matrix(1 0 0 1 439.7637 300.9482)" fill="#919191" font-family="'SimHei'" font-size="6">150</text>
<line fill="none" stroke="#64B5F6" stroke-width="0.75" stroke-miterlimit="10" x1="509.753" y1="299.792" x2="509.753" y2="305.378"/>
<line fill="none" stroke="#64B5F6" stroke-width="0.75" stroke-miterlimit="10" x1="509.753" y1="345.708" x2="509.753" y2="336.874"/>
<rect x="500.192" y="305.378" fill="#64B5F6" width="19.119" height="31.496"/>
<line fill="none" stroke="#FFFFFF" stroke-width="0.75" stroke-miterlimit="10" x1="500.192" y1="324.474" x2="519.312" y2="324.474"/>
<line fill="none" stroke="#64B5F6" stroke-width="0.75" stroke-miterlimit="10" x1="504.831" y1="299.792" x2="514.673" y2="299.792"/>
<line fill="none" stroke="#64B5F6" stroke-width="0.75" stroke-miterlimit="10" x1="514.673" y1="345.708" x2="504.831" y2="345.708"/>
<text transform="matrix(1 0 0 1 515.5137 300.792)" fill="#919191" font-family="'SimHei'" font-size="6">150</text>
<text transform="matrix(1 0 0 1 520.7324 306.5107)" fill="#919191" font-family="'SimHei'" font-size="6">140</text>
<text transform="matrix(1 0 0 1 520.7324 325.5244)" fill="#919191" font-family="'SimHei'" font-size="6">110</text>
<text transform="matrix(1 0 0 1 520.7324 337.9365)" fill="#919191" font-family="'SimHei'" font-size="6">90</text>
<text transform="matrix(1 0 0 1 515.5137 346.8643)" fill="#919191" font-family="'SimHei'" font-size="6">75</text>
<line fill="none" stroke="#64B5F6" stroke-width="0.75" stroke-miterlimit="10" x1="357.815" y1="269.071" x2="357.815" y2="283.978"/>
<line fill="none" stroke="#64B5F6" stroke-width="0.75" stroke-miterlimit="10" x1="357.815" y1="321.151" x2="357.815" y2="308.8"/>
<rect x="348.255" y="283.978" fill="#64B5F6" width="19.119" height="24.822"/>
<line fill="none" stroke="#FFFFFF" stroke-width="0.75" stroke-miterlimit="10" x1="348.255" y1="299.54" x2="367.374" y2="299.54"/>
<line fill="none" stroke="#64B5F6" stroke-width="0.75" stroke-miterlimit="10" x1="352.894" y1="269.071" x2="362.735" y2="269.071"/>
<line fill="none" stroke="#64B5F6" stroke-width="0.75" stroke-miterlimit="10" x1="362.735" y1="321.151" x2="352.894" y2="321.151"/>
<text transform="matrix(1 0 0 1 364.4512 270.0713)" fill="#919191" font-family="'SimHei'" font-size="6">200</text>
<text transform="matrix(1 0 0 1 369.6699 285.1104)" fill="#919191" font-family="'SimHei'" font-size="6">175</text>
<text transform="matrix(1 0 0 1 369.6699 300.5889)" fill="#919191" font-family="'SimHei'" font-size="6">150</text>
<text transform="matrix(1 0 0 1 369.6699 309.8623)" fill="#919191" font-family="'SimHei'" font-size="6">135</text>
<text transform="matrix(1 0 0 1 364.4512 322.3076)" fill="#919191" font-family="'SimHei'" font-size="6">115</text>
<line fill="none" stroke="#64B5F6" stroke-width="0.75" stroke-miterlimit="10" x1="281.815" y1="284.603" x2="281.815" y2="290.188"/>
<line fill="none" stroke="#64B5F6" stroke-width="0.75" stroke-miterlimit="10" x1="281.815" y1="336.392" x2="281.815" y2="330.735"/>
<rect x="272.255" y="290.188" fill="#64B5F6" width="19.119" height="40.547"/>
<line fill="none" stroke="#FFFFFF" stroke-width="0.75" stroke-miterlimit="10" x1="272.255" y1="300.063" x2="291.374" y2="300.063"/>
<line fill="none" stroke="#64B5F6" stroke-width="0.75" stroke-miterlimit="10" x1="276.894" y1="284.603" x2="286.735" y2="284.603"/>
<line fill="none" stroke="#64B5F6" stroke-width="0.75" stroke-miterlimit="10" x1="286.735" y1="336.392" x2="276.894" y2="336.392"/>
<text transform="matrix(1 0 0 1 288.3262 285.6025)" fill="#919191" font-family="'SimHei'" font-size="6">175</text>
<text transform="matrix(1 0 0 1 293.5449 291.3213)" fill="#919191" font-family="'SimHei'" font-size="6">165</text>
<text transform="matrix(1 0 0 1 293.5449 301.1143)" fill="#919191" font-family="'SimHei'" font-size="6">150</text>
<text transform="matrix(1 0 0 1 293.5449 331.7979)" fill="#919191" font-family="'SimHei'" font-size="6">100</text>
<text transform="matrix(1 0 0 1 288.3262 337.5479)" fill="#919191" font-family="'SimHei'" font-size="6">90</text>
</svg>
