<?xml version="1.0" encoding="utf-8"?>
<!-- Generator: Adobe Illustrator 16.0.0, SVG Export Plug-In . SVG Version: 6.00 Build 0)  -->
<!DOCTYPE svg PUBLIC "-//W3C//DTD SVG 1.1//EN" "http://www.w3.org/Graphics/SVG/1.1/DTD/svg11.dtd">
<svg version="1.1" id="图层_1" xmlns="http://www.w3.org/2000/svg" xmlns:xlink="http://www.w3.org/1999/xlink" x="0px" y="0px"
	 width="595.275px" height="595.275px" viewBox="0 0 595.275 595.275" enable-background="new 0 0 595.275 595.275"
	 xml:space="preserve">
<g>
	<text transform="matrix(1 0 0 1 203.791 189.7402)" fill="#474747" font-family="'SimHei'" font-size="14">2017年不同鞋类的价格变化汇总</text>
</g>
<g>
	<text transform="matrix(1 0 0 1 277.792 402.8516)" fill="#474747" font-family="'SimHei'" font-size="12">不同鞋类</text>
</g>
<g>
	<text transform="matrix(1 0 0 1 81.6172 364.8984)" fill="#333333" font-family="'SimHei'" font-size="10">50</text>
</g>
<text transform="matrix(1 0 0 1 119.8145 377.3984)" fill="#333333" font-family="'SimHei'" font-size="10">雨鞋</text>
<text transform="matrix(1 0 0 1 81.6172 349.5195)" fill="#333333" font-family="'SimHei'" font-size="10">75</text>
<text transform="matrix(1 0 0 1 76.6172 334.1426)" fill="#333333" font-family="'SimHei'" font-size="10">100</text>
<text transform="matrix(1 0 0 1 76.6172 318.7637)" fill="#333333" font-family="'SimHei'" font-size="10">125</text>
<text transform="matrix(1 0 0 1 76.6172 303.3867)" fill="#333333" font-family="'SimHei'" font-size="10">150</text>
<text transform="matrix(1 0 0 1 76.6172 288.0078)" fill="#333333" font-family="'SimHei'" font-size="10">175</text>
<text transform="matrix(1 0 0 1 76.6172 272.6309)" fill="#333333" font-family="'SimHei'" font-size="10">200</text>
<text transform="matrix(1 0 0 1 195.8145 377.3984)" fill="#333333" font-family="'SimHei'" font-size="10">布鞋</text>
<text transform="matrix(1 0 0 1 271.8145 377.3984)" fill="#333333" font-family="'SimHei'" font-size="10">皮鞋</text>
<text transform="matrix(1 0 0 1 342.8145 377.3984)" fill="#333333" font-family="'SimHei'" font-size="10">运动鞋</text>
<text transform="matrix(1 0 0 1 418.8145 377.3984)" fill="#333333" font-family="'SimHei'" font-size="10">篮球鞋</text>
<text transform="matrix(1 0 0 1 499.8145 377.3984)" fill="#333333" font-family="'SimHei'" font-size="10">板鞋</text>
<text transform="matrix(1 0 0 1 61.0908 265.6953)" writing-mode="tb"><tspan x="0" y="0" fill="#474747" font-family="'SimHei'" font-size="12" glyph-orientation-vertical="0">价格</tspan><tspan x="0" y="24" fill="#474747" font-family="'SimHei'" font-size="12" glyph-orientation-vertical="1">(</tspan><tspan x="0" y="30" fill="#474747" font-family="'SimHei'" font-size="12" glyph-orientation-vertical="0">美元</tspan><tspan x="0" y="54" fill="#474747" font-family="'SimHei'" font-size="12" glyph-orientation-vertical="1">)</tspan></text>
<text transform="matrix(1 0 0 1 76.6172 257.2559)" fill="#333333" font-family="'SimHei'" font-size="10">225</text>
<text transform="matrix(1 0 0 1 76.6172 241.8809)" fill="#333333" font-family="'SimHei'" font-size="10">250</text>
<text transform="matrix(1 0 0 1 76.6172 226.5059)" fill="#333333" font-family="'SimHei'" font-size="10">275</text>
<g>
	<rect id="Rectangle-421-Copy-57_123_" x="101.616" y="360.898" fill="#EEEEEE" width="432.569" height="1"/>
	<rect id="Rectangle-421-Copy-57_122_" x="101.616" y="345.521" fill="#EEEEEE" width="432.569" height="1"/>
	<rect id="Rectangle-421-Copy-57_121_" x="101.616" y="330.143" fill="#EEEEEE" width="432.569" height="1"/>
	<rect id="Rectangle-421-Copy-57_120_" x="101.616" y="314.766" fill="#EEEEEE" width="432.569" height="1"/>
	<rect id="Rectangle-421-Copy-57_119_" x="101.616" y="299.387" fill="#EEEEEE" width="432.569" height="1"/>
	<rect id="Rectangle-421-Copy-57_118_" x="101.616" y="284.01" fill="#EEEEEE" width="432.569" height="1"/>
	<rect id="Rectangle-421-Copy-57_117_" x="101.616" y="268.631" fill="#EEEEEE" width="432.569" height="1"/>
	<rect id="Rectangle-421-Copy-57_116_" x="101.616" y="253.256" fill="#EEEEEE" width="432.569" height="1"/>
	<rect id="Rectangle-421-Copy-57_115_" x="101.616" y="237.881" fill="#EEEEEE" width="432.569" height="1"/>
	<rect id="Rectangle-421-Copy-57_114_" x="101.616" y="222.506" fill="#EEEEEE" width="432.569" height="1"/>
</g>
<line fill="none" stroke="#64B5F6" stroke-width="0.75" stroke-miterlimit="10" x1="281.814" y1="284.648" x2="281.814" y2="290.234"/>
<line fill="none" stroke="#64B5F6" stroke-width="0.75" stroke-miterlimit="10" x1="281.814" y1="336.393" x2="281.814" y2="330.736"/>
<rect x="272.255" y="290.234" fill="#64B5F6" width="19.118" height="40.502"/>
<line fill="none" stroke="#FFFFFF" stroke-width="0.75" stroke-miterlimit="10" x1="272.255" y1="321.4" x2="291.373" y2="321.4"/>
<line fill="none" stroke="#64B5F6" stroke-width="0.75" stroke-miterlimit="10" x1="276.893" y1="284.648" x2="286.735" y2="284.648"/>
<line fill="none" stroke="#64B5F6" stroke-width="0.75" stroke-miterlimit="10" x1="286.735" y1="336.393" x2="276.893" y2="336.393"/>
<text transform="matrix(1 0 0 1 287.7246 285.6484)" fill="#919191" font-family="'SimHei'" font-size="6">175</text>
<text transform="matrix(1 0 0 1 292.9434 291.3672)" fill="#919191" font-family="'SimHei'" font-size="6">165</text>
<text transform="matrix(1 0 0 1 292.9434 322.2168)" fill="#919191" font-family="'SimHei'" font-size="6">115</text>
<text transform="matrix(1 0 0 1 292.9434 331.7988)" fill="#919191" font-family="'SimHei'" font-size="6">100</text>
<text transform="matrix(1 0 0 1 287.7246 337.5488)" fill="#919191" font-family="'SimHei'" font-size="6">90</text>
<line fill="none" stroke="#74AC4B" stroke-width="0.75" stroke-miterlimit="10" x1="357.815" y1="253.639" x2="357.815" y2="259.225"/>
<line fill="none" stroke="#74AC4B" stroke-width="0.75" stroke-miterlimit="10" x1="357.815" y1="304.965" x2="357.815" y2="299.887"/>
<rect x="348.255" y="259.225" fill="#74AC4B" width="19.119" height="40.662"/>
<line fill="none" stroke="#FFFFFF" stroke-width="0.75" stroke-miterlimit="10" x1="348.255" y1="269.234" x2="367.374" y2="269.234"/>
<line fill="none" stroke="#74AC4B" stroke-width="0.75" stroke-miterlimit="10" x1="352.894" y1="253.639" x2="362.735" y2="253.639"/>
<line fill="none" stroke="#74AC4B" stroke-width="0.75" stroke-miterlimit="10" x1="362.735" y1="304.965" x2="352.894" y2="304.965"/>
<text transform="matrix(1 0 0 1 363.8262 254.6367)" fill="#919191" font-family="'SimHei'" font-size="6">225</text>
<text transform="matrix(1 0 0 1 369.0449 260.3555)" fill="#919191" font-family="'SimHei'" font-size="6">215</text>
<text transform="matrix(1 0 0 1 369.0449 270.2832)" fill="#919191" font-family="'SimHei'" font-size="6">200</text>
<text transform="matrix(1 0 0 1 369.0449 300.9492)" fill="#919191" font-family="'SimHei'" font-size="6">150</text>
<text transform="matrix(1 0 0 1 363.8262 306.1211)" fill="#919191" font-family="'SimHei'" font-size="6">140</text>
<line fill="none" stroke="#EB815A" stroke-width="0.75" stroke-miterlimit="10" x1="131.042" y1="258.725" x2="131.042" y2="268.439"/>
<line fill="none" stroke="#EB815A" stroke-width="0.75" stroke-miterlimit="10" x1="131.042" y1="315.76" x2="131.042" y2="300.477"/>
<rect x="121.481" y="268.439" fill="#EB815A" width="19.119" height="32.037"/>
<line fill="none" stroke="#FFFFFF" stroke-width="0.75" stroke-miterlimit="10" x1="121.481" y1="291.02" x2="140.601" y2="291.02"/>
<line fill="none" stroke="#EB815A" stroke-width="0.75" stroke-miterlimit="10" x1="126.12" y1="258.725" x2="135.962" y2="258.725"/>
<line fill="none" stroke="#EB815A" stroke-width="0.75" stroke-miterlimit="10" x1="135.962" y1="315.76" x2="126.12" y2="315.76"/>
<text transform="matrix(1 0 0 1 136.9277 259.7246)" fill="#919191" font-family="'SimHei'" font-size="6">215</text>
<text transform="matrix(1 0 0 1 142.1465 269.5723)" fill="#919191" font-family="'SimHei'" font-size="6">200</text>
<text transform="matrix(1 0 0 1 142.1465 292.0684)" fill="#919191" font-family="'SimHei'" font-size="6">165</text>
<text transform="matrix(1 0 0 1 142.1465 301.5371)" fill="#919191" font-family="'SimHei'" font-size="6">150</text>
<text transform="matrix(1 0 0 1 136.9277 316.916)" fill="#919191" font-family="'SimHei'" font-size="6">125</text>
<line fill="none" stroke="#FD671B" stroke-width="0.75" stroke-miterlimit="10" x1="205.815" y1="238.381" x2="205.815" y2="243.967"/>
<line fill="none" stroke="#FD671B" stroke-width="0.75" stroke-miterlimit="10" x1="205.815" y1="284.295" x2="205.815" y2="275.461"/>
<rect x="196.255" y="243.967" fill="#FD671B" width="19.119" height="31.494"/>
<line fill="none" stroke="#FFFFFF" stroke-width="0.75" stroke-miterlimit="10" x1="196.255" y1="263.063" x2="215.374" y2="263.063"/>
<line fill="none" stroke="#FD671B" stroke-width="0.75" stroke-miterlimit="10" x1="200.894" y1="238.381" x2="210.735" y2="238.381"/>
<line fill="none" stroke="#FD671B" stroke-width="0.75" stroke-miterlimit="10" x1="210.735" y1="284.295" x2="200.894" y2="284.295"/>
<text transform="matrix(1 0 0 1 211.5762 239.3789)" fill="#919191" font-family="'SimHei'" font-size="6">250</text>
<text transform="matrix(1 0 0 1 216.7949 245.0977)" fill="#919191" font-family="'SimHei'" font-size="6">240</text>
<text transform="matrix(1 0 0 1 216.7949 264.1113)" fill="#919191" font-family="'SimHei'" font-size="6">210</text>
<text transform="matrix(1 0 0 1 216.7949 276.5234)" fill="#919191" font-family="'SimHei'" font-size="6">190</text>
<text transform="matrix(1 0 0 1 211.5762 285.4512)" fill="#919191" font-family="'SimHei'" font-size="6">175</text>
<line fill="none" stroke="#FFBD00" stroke-width="0.75" stroke-miterlimit="10" x1="509.815" y1="269.072" x2="509.815" y2="283.979"/>
<line fill="none" stroke="#FFBD00" stroke-width="0.75" stroke-miterlimit="10" x1="509.815" y1="330.537" x2="509.815" y2="318.186"/>
<rect x="500.255" y="283.979" fill="#FFBD00" width="19.119" height="34.207"/>
<line fill="none" stroke="#FFFFFF" stroke-width="0.75" stroke-miterlimit="10" x1="500.255" y1="299.541" x2="519.374" y2="299.541"/>
<line fill="none" stroke="#FFBD00" stroke-width="0.75" stroke-miterlimit="10" x1="504.894" y1="269.072" x2="514.735" y2="269.072"/>
<line fill="none" stroke="#FFBD00" stroke-width="0.75" stroke-miterlimit="10" x1="514.735" y1="330.537" x2="504.894" y2="330.537"/>
<text transform="matrix(1 0 0 1 516.4512 270.0723)" fill="#919191" font-family="'SimHei'" font-size="6">200</text>
<text transform="matrix(1 0 0 1 521.6699 285.1113)" fill="#919191" font-family="'SimHei'" font-size="6">175</text>
<text transform="matrix(1 0 0 1 521.6699 300.5889)" fill="#919191" font-family="'SimHei'" font-size="6">150</text>
<text transform="matrix(1 0 0 1 521.6699 319.248)" fill="#919191" font-family="'SimHei'" font-size="6">120</text>
<text transform="matrix(1 0 0 1 516.4512 331.6934)" fill="#919191" font-family="'SimHei'" font-size="6">100</text>
<line fill="none" stroke="#2FEAB8" stroke-width="0.75" stroke-miterlimit="10" x1="433.815" y1="253.404" x2="433.815" y2="258.99"/>
<line fill="none" stroke="#2FEAB8" stroke-width="0.75" stroke-miterlimit="10" x1="433.815" y1="321.014" x2="433.815" y2="315.357"/>
<rect x="424.255" y="258.99" fill="#2FEAB8" width="19.119" height="56.367"/>
<line fill="none" stroke="#FFFFFF" stroke-width="0.75" stroke-miterlimit="10" x1="424.255" y1="268.865" x2="443.374" y2="268.865"/>
<line fill="none" stroke="#2FEAB8" stroke-width="0.75" stroke-miterlimit="10" x1="428.894" y1="253.404" x2="438.735" y2="253.404"/>
<line fill="none" stroke="#2FEAB8" stroke-width="0.75" stroke-miterlimit="10" x1="438.735" y1="321.014" x2="428.894" y2="321.014"/>
<text transform="matrix(1 0 0 1 440.3262 254.4043)" fill="#919191" font-family="'SimHei'" font-size="6">225</text>
<text transform="matrix(1 0 0 1 445.5449 260.123)" fill="#919191" font-family="'SimHei'" font-size="6">215 </text>
<text transform="matrix(1 0 0 1 445.5449 269.916)" fill="#919191" font-family="'SimHei'" font-size="6">200</text>
<text transform="matrix(1 0 0 1 445.5449 316.4199)" fill="#919191" font-family="'SimHei'" font-size="6">125</text>
<text transform="matrix(1 0 0 1 440.3262 322.1699)" fill="#919191" font-family="'SimHei'" font-size="6">115</text>
</svg>
