<?xml version="1.0" encoding="utf-8"?>
<!-- Generator: Adobe Illustrator 16.0.0, SVG Export Plug-In . SVG Version: 6.00 Build 0)  -->
<!DOCTYPE svg PUBLIC "-//W3C//DTD SVG 1.1//EN" "http://www.w3.org/Graphics/SVG/1.1/DTD/svg11.dtd">
<svg version="1.1" id="图层_1" xmlns="http://www.w3.org/2000/svg" xmlns:xlink="http://www.w3.org/1999/xlink" x="0px" y="0px"
	 width="595.275px" height="595.275px" viewBox="0 0 595.275 595.275" enable-background="new 0 0 595.275 595.275"
	 xml:space="preserve">
<g>
	<text transform="matrix(1 0 0 1 203.792 225.2744)" fill="#474747" font-family="'SimHei'" font-size="14">某商品价格在调查中出现的频率</text>
</g>
<g>
	<text transform="matrix(1 0 0 1 277.792 384.0518)" fill="#474747" font-family="'SimHei'" font-size="12">商品价格</text>
</g>
<g>
	<text transform="matrix(1 0 0 1 81.6182 346.0986)" fill="#333333" font-family="'SimHei'" font-size="10">0%</text>
</g>
<text transform="matrix(1 0 0 1 119.8135 358.5986)" fill="#333333" font-family="'SimHei'" font-size="10">7.95元</text>
<text transform="matrix(1 0 0 1 81.6182 330.7207)" fill="#333333" font-family="'SimHei'" font-size="10">2%</text>
<text transform="matrix(1 0 0 1 81.6182 315.3428)" fill="#333333" font-family="'SimHei'" font-size="10">4%</text>
<text transform="matrix(1 0 0 1 81.6182 299.9648)" fill="#333333" font-family="'SimHei'" font-size="10">6%</text>
<text transform="matrix(1 0 0 1 81.6182 284.5869)" fill="#333333" font-family="'SimHei'" font-size="10">8%</text>
<text transform="matrix(1 0 0 1 76.6182 269.209)" fill="#333333" font-family="'SimHei'" font-size="10">10%</text>
<text transform="matrix(1 0 0 1 76.6182 253.8311)" fill="#333333" font-family="'SimHei'" font-size="10">12%</text>
<g>
	<rect id="Rectangle-421-Copy-57_49_" x="101.616" y="342.099" fill="#EEEEEE" width="432.569" height="1"/>
	<rect id="Rectangle-421-Copy-57_48_" x="101.616" y="326.721" fill="#EEEEEE" width="432.569" height="1"/>
	<rect id="Rectangle-421-Copy-57_47_" x="101.616" y="311.343" fill="#EEEEEE" width="432.569" height="1"/>
	<rect id="Rectangle-421-Copy-57_46_" x="101.616" y="295.965" fill="#EEEEEE" width="432.569" height="1"/>
	<rect id="Rectangle-421-Copy-57_45_" x="101.616" y="280.587" fill="#EEEEEE" width="432.569" height="1"/>
	<rect id="Rectangle-421-Copy-57_44_" x="101.616" y="265.209" fill="#EEEEEE" width="432.569" height="1"/>
	<rect id="Rectangle-421-Copy-57_43_" x="101.616" y="249.831" fill="#EEEEEE" width="432.569" height="1"/>
</g>
<text transform="matrix(1 0 0 1 157.8135 358.5986)" fill="#333333" font-family="'SimHei'" font-size="10">8.00元</text>
<text transform="matrix(1 0 0 1 195.8135 358.5986)" fill="#333333" font-family="'SimHei'" font-size="10">8.05元</text>
<text transform="matrix(1 0 0 1 233.8135 358.5986)" fill="#333333" font-family="'SimHei'" font-size="10">8.10元</text>
<text transform="matrix(1 0 0 1 271.8135 358.5986)" fill="#333333" font-family="'SimHei'" font-size="10">8.15元</text>
<text transform="matrix(1 0 0 1 309.8135 358.5986)" fill="#333333" font-family="'SimHei'" font-size="10">8.20元</text>
<text transform="matrix(1 0 0 1 347.8135 358.5986)" fill="#333333" font-family="'SimHei'" font-size="10">8.25元</text>
<text transform="matrix(1 0 0 1 385.8135 358.5986)" fill="#333333" font-family="'SimHei'" font-size="10">8.30元</text>
<text transform="matrix(1 0 0 1 423.8135 358.5986)" fill="#333333" font-family="'SimHei'" font-size="10">8.35元</text>
<text transform="matrix(1 0 0 1 461.8135 358.5986)" fill="#333333" font-family="'SimHei'" font-size="10">8.40元</text>
<text transform="matrix(1 0 0 1 499.8135 358.5986)" fill="#333333" font-family="'SimHei'" font-size="10">8.45元</text>
<text transform="matrix(1 0 0 1 61.0908 269.209)" fill="#474747" font-family="'SimHei'" font-size="12" glyph-orientation-vertical="0" writing-mode="tb">出现的频率</text>
<rect id="Rectangle-26-Copy-5_98_" x="430.813" y="296.465" fill="#C9C9C9" width="16" height="46.635"/>
<text transform="matrix(1 0 0 1 435.8135 301.6211)" fill="#FFFFFF" font-family="'SimHei'" font-size="6">6%</text>
<polygon fill="#B2B2B2" points="430.813,296.465 427.339,300.918 427.339,343.1 430.813,343.1 "/>
<rect id="Rectangle-26-Copy-5_96_" x="240.813" y="281.587" fill="#C9C9C9" width="16" height="61.513"/>
<text transform="matrix(1 0 0 1 245.8135 286.7432)" fill="#FFFFFF" font-family="'SimHei'" font-size="6">8%</text>
<polygon fill="#B2B2B2" points="240.813,281.587 237.339,286.039 237.339,343.1 240.813,343.1 "/>
<rect id="Rectangle-26-Copy-5_95_" x="468.813" y="281.087" fill="#C9C9C9" width="16" height="62.013"/>
<text transform="matrix(1 0 0 1 473.8135 286.2432)" fill="#FFFFFF" font-family="'SimHei'" font-size="6">8%</text>
<polygon fill="#B2B2B2" points="468.813,281.087 465.339,285.539 465.339,343.099 468.813,343.099 "/>
<rect id="Rectangle-26-Copy-5_91_" x="316.813" y="273.221" fill="#C9C9C9" width="16" height="69.879"/>
<text transform="matrix(1 0 0 1 321.8135 278.377)" fill="#FFFFFF" font-family="'SimHei'" font-size="6">9%</text>
<polygon fill="#B2B2B2" points="316.813,273.221 313.339,277.674 313.339,343.1 316.813,343.1 "/>
<rect id="Rectangle-26-Copy-5_93_" x="354.813" y="288.221" fill="#C9C9C9" width="16" height="54.879"/>
<text transform="matrix(1 0 0 1 359.8135 293.377)" fill="#FFFFFF" font-family="'SimHei'" font-size="6">7%</text>
<polygon fill="#B2B2B2" points="354.813,288.221 351.339,292.674 351.339,343.1 354.813,343.1 "/>
<rect id="Rectangle-26-Copy-5_92_" x="392.813" y="311.843" fill="#C9C9C9" width="16" height="31.257"/>
<text transform="matrix(1 0 0 1 397.8135 316.999)" fill="#FFFFFF" font-family="'SimHei'" font-size="6">4%</text>
<polygon fill="#B2B2B2" points="392.813,311.843 389.339,316.295 389.339,343.1 392.813,343.1 "/>
<rect id="Rectangle-26-Copy-5_97_" x="506.813" y="296.434" fill="#C9C9C9" width="16" height="46.666"/>
<text transform="matrix(1 0 0 1 511.8135 301.5898)" fill="#FFFFFF" font-family="'SimHei'" font-size="6">6%</text>
<polygon fill="#B2B2B2" points="506.813,296.434 503.339,300.887 503.339,343.099 506.813,343.099 "/>
<rect id="Rectangle-26-Copy-5_90_" x="164.813" y="257.555" fill="#C9C9C9" width="16" height="85.545"/>
<text transform="matrix(1 0 0 1 168.3135 262.7109)" fill="#FFFFFF" font-family="'SimHei'" font-size="6">11%</text>
<polygon fill="#B2B2B2" points="164.813,257.555 161.339,262.007 161.339,343.099 164.813,343.099 "/>
<rect id="Rectangle-26-Copy-5_89_" x="202.813" y="327.721" fill="#C9C9C9" width="16" height="15.379"/>
<text transform="matrix(1 0 0 1 207.8135 332.877)" fill="#FFFFFF" font-family="'SimHei'" font-size="6">2%</text>
<polygon fill="#B2B2B2" points="202.813,327.721 199.339,332.174 199.339,343.099 202.813,343.099 "/>
<rect id="Rectangle-26-Copy-5_88_" x="278.813" y="318.783" fill="#C9C9C9" width="16" height="24.316"/>
<text transform="matrix(1 0 0 1 283.8135 323.9395)" fill="#FFFFFF" font-family="'SimHei'" font-size="6">3%</text>
<polygon fill="#B2B2B2" points="278.813,318.783 275.339,323.236 275.339,343.1 278.813,343.1 "/>
<rect id="Rectangle-26-Copy-5_85_" x="126.813" y="303.938" fill="#C9C9C9" width="16" height="40.004"/>
<text transform="matrix(1 0 0 1 131.8135 309.0938)" fill="#FFFFFF" font-family="'SimHei'" font-size="6">5%</text>
<polygon fill="#B2B2B2" points="126.813,303.938 123.339,308.391 123.339,343.94 126.813,343.94 "/>
</svg>
