<?xml version="1.0" encoding="utf-8"?>
<!-- Generator: Adobe Illustrator 16.0.0, SVG Export Plug-In . SVG Version: 6.00 Build 0)  -->
<!DOCTYPE svg PUBLIC "-//W3C//DTD SVG 1.1//EN" "http://www.w3.org/Graphics/SVG/1.1/DTD/svg11.dtd">
<svg version="1.1" id="图层_1" xmlns="http://www.w3.org/2000/svg" xmlns:xlink="http://www.w3.org/1999/xlink" x="0px" y="0px"
	 width="595.275px" height="595.275px" viewBox="0 0 595.275 595.275" enable-background="new 0 0 595.275 595.275"
	 xml:space="preserve">
<g>
	<text transform="matrix(1 0 0 1 203.792 225.2744)" fill="#474747" font-family="'SimHei'" font-size="14">某商品价格在调查中出现的频率</text>
</g>
<g>
	<text transform="matrix(1 0 0 1 277.792 384.0518)" fill="#474747" font-family="'SimHei'" font-size="12">商品价格</text>
</g>
<g>
	<text transform="matrix(1 0 0 1 81.6182 346.0986)" fill="#333333" font-family="'SimHei'" font-size="10">0%</text>
</g>
<text transform="matrix(1 0 0 1 119.8135 358.5986)" fill="#333333" font-family="'SimHei'" font-size="10">7.95元</text>
<text transform="matrix(1 0 0 1 81.6182 330.7207)" fill="#333333" font-family="'SimHei'" font-size="10">2%</text>
<text transform="matrix(1 0 0 1 81.6182 315.3428)" fill="#333333" font-family="'SimHei'" font-size="10">4%</text>
<text transform="matrix(1 0 0 1 81.6182 299.9648)" fill="#333333" font-family="'SimHei'" font-size="10">6%</text>
<text transform="matrix(1 0 0 1 81.6182 284.5869)" fill="#333333" font-family="'SimHei'" font-size="10">8%</text>
<text transform="matrix(1 0 0 1 76.6182 269.209)" fill="#333333" font-family="'SimHei'" font-size="10">10%</text>
<text transform="matrix(1 0 0 1 76.6182 253.8311)" fill="#333333" font-family="'SimHei'" font-size="10">12%</text>
<g>
	<rect id="Rectangle-421-Copy-57_56_" x="101.616" y="342.099" fill="#EEEEEE" width="432.569" height="1"/>
	<rect id="Rectangle-421-Copy-57_55_" x="101.616" y="326.721" fill="#EEEEEE" width="432.569" height="1"/>
	<rect id="Rectangle-421-Copy-57_54_" x="101.616" y="311.343" fill="#EEEEEE" width="432.569" height="1"/>
	<rect id="Rectangle-421-Copy-57_53_" x="101.616" y="295.965" fill="#EEEEEE" width="432.569" height="1"/>
	<rect id="Rectangle-421-Copy-57_52_" x="101.616" y="280.587" fill="#EEEEEE" width="432.569" height="1"/>
	<rect id="Rectangle-421-Copy-57_51_" x="101.616" y="265.209" fill="#EEEEEE" width="432.569" height="1"/>
	<rect id="Rectangle-421-Copy-57_50_" x="101.616" y="249.831" fill="#EEEEEE" width="432.569" height="1"/>
</g>
<text transform="matrix(1 0 0 1 157.8135 358.5986)" fill="#333333" font-family="'SimHei'" font-size="10">8.00元</text>
<text transform="matrix(1 0 0 1 195.8135 358.5986)" fill="#333333" font-family="'SimHei'" font-size="10">8.05元</text>
<text transform="matrix(1 0 0 1 233.8135 358.5986)" fill="#333333" font-family="'SimHei'" font-size="10">8.10元</text>
<text transform="matrix(1 0 0 1 271.8135 358.5986)" fill="#333333" font-family="'SimHei'" font-size="10">8.15元</text>
<text transform="matrix(1 0 0 1 309.8135 358.5986)" fill="#333333" font-family="'SimHei'" font-size="10">8.20元</text>
<text transform="matrix(1 0 0 1 347.8135 358.5986)" fill="#333333" font-family="'SimHei'" font-size="10">8.25元</text>
<text transform="matrix(1 0 0 1 385.8135 358.5986)" fill="#333333" font-family="'SimHei'" font-size="10">8.30元</text>
<text transform="matrix(1 0 0 1 423.8135 358.5986)" fill="#333333" font-family="'SimHei'" font-size="10">8.35元</text>
<text transform="matrix(1 0 0 1 461.8135 358.5986)" fill="#333333" font-family="'SimHei'" font-size="10">8.40元</text>
<text transform="matrix(1 0 0 1 499.8135 358.5986)" fill="#333333" font-family="'SimHei'" font-size="10">8.45元</text>
<text transform="matrix(1 0 0 1 61.0908 269.209)" fill="#474747" font-family="'SimHei'" font-size="12" glyph-orientation-vertical="0" writing-mode="tb">出现的频率</text>
<rect id="Rectangle-26-Copy-5_108_" x="468.813" y="326.721" fill="#64B5F6" width="16" height="16.379"/>
<text transform="matrix(1 0 0 1 473.8135 331.877)" fill="#FFFFFF" font-family="'SimHei'" font-size="6">2%</text>
<g>
	<rect id="Rectangle-26-Copy-5_107_" x="392.813" y="281.056" fill="#64B5F6" width="16" height="62.044"/>
	<text transform="matrix(1 0 0 1 397.8135 286.2119)" fill="#FFFFFF" font-family="'SimHei'" font-size="6">8%</text>
</g>
<g>
	<rect id="Rectangle-26-Copy-5_102_" x="240.813" y="281.056" fill="#64B5F6" width="16" height="62.044"/>
	<text transform="matrix(1 0 0 1 245.8135 286.2119)" fill="#FFFFFF" font-family="'SimHei'" font-size="6">8%</text>
</g>
<g>
	<rect id="Rectangle-26-Copy-5_106_" x="354.813" y="273.221" fill="#64B5F6" width="16" height="69.879"/>
	<text transform="matrix(1 0 0 1 359.8135 278.377)" fill="#FFFFFF" font-family="'SimHei'" font-size="6">9%</text>
</g>
<g>
	<rect id="Rectangle-26-Copy-5_105_" x="202.813" y="319.782" fill="#64B5F6" width="16" height="23.317"/>
	<text transform="matrix(1 0 0 1 207.8135 324.9385)" fill="#FFFFFF" font-family="'SimHei'" font-size="6">3%</text>
</g>
<g>
	<rect id="Rectangle-26-Copy-5_104_" x="506.813" y="295.965" fill="#64B5F6" width="16" height="47.135"/>
	<text transform="matrix(1 0 0 1 511.8135 301.1211)" fill="#FFFFFF" font-family="'SimHei'" font-size="6">6%</text>
</g>
<g>
	<rect id="Rectangle-26-Copy-5_103_" x="126.813" y="295.965" fill="#64B5F6" width="16" height="47.135"/>
	<text transform="matrix(1 0 0 1 131.8135 301.1211)" fill="#FFFFFF" font-family="'SimHei'" font-size="6">6%</text>
</g>
<g>
	<rect id="Rectangle-26-Copy-5_109_" x="164.813" y="265.209" fill="#64B5F6" width="16" height="77.891"/>
	<text transform="matrix(1 0 0 1 168.3135 270.3652)" fill="#FFFFFF" font-family="'SimHei'" font-size="6">10%</text>
</g>
<g>
	<rect id="Rectangle-26-Copy-5_101_" x="278.813" y="312.343" fill="#64B5F6" width="16" height="30.757"/>
	<text transform="matrix(1 0 0 1 283.8135 317.499)" fill="#FFFFFF" font-family="'SimHei'" font-size="6">4%</text>
</g>
<g>
	<rect id="Rectangle-26-Copy-5_99_" x="316.813" y="334.25" fill="#64B5F6" width="16" height="8.85"/>
	<g>
		<text transform="matrix(1 0 0 1 321.8135 339.4063)" fill="#FFFFFF" font-family="'SimHei'" font-size="6">1%</text>
	</g>
</g>
<g>
	<rect id="Rectangle-26-Copy-5_100_" x="430.813" y="296.465" fill="#64B5F6" width="16" height="46.635"/>
	<text transform="matrix(1 0 0 1 435.8135 301.6201)" fill="#FFFFFF" font-family="'SimHei'" font-size="6">6%</text>
</g>
</svg>
