<?xml version="1.0" encoding="utf-8"?>
<!-- Generator: Adobe Illustrator 16.0.0, SVG Export Plug-In . SVG Version: 6.00 Build 0)  -->
<!DOCTYPE svg PUBLIC "-//W3C//DTD SVG 1.1//EN" "http://www.w3.org/Graphics/SVG/1.1/DTD/svg11.dtd">
<svg version="1.1" id="图层_1" xmlns="http://www.w3.org/2000/svg" xmlns:xlink="http://www.w3.org/1999/xlink" x="0px" y="0px"
	 width="595.275px" height="595.275px" viewBox="0 0 595.275 595.275" enable-background="new 0 0 595.275 595.275"
	 xml:space="preserve">
<g>
	<text transform="matrix(1 0 0 1 203.791 225.2744)" fill="#474747" font-family="'SimHei'" font-size="14">某商品价格在调查中出现的频率</text>
</g>
<g>
	<text transform="matrix(1 0 0 1 277.792 384.0518)" fill="#474747" font-family="'SimHei'" font-size="12">商品价格</text>
</g>
<g>
	<text transform="matrix(1 0 0 1 81.6172 346.0986)" fill="#333333" font-family="'SimHei'" font-size="10">0%</text>
</g>
<text transform="matrix(1 0 0 1 119.8145 358.5986)" fill="#333333" font-family="'SimHei'" font-size="10">7.95元</text>
<text transform="matrix(1 0 0 1 81.6172 330.7207)" fill="#333333" font-family="'SimHei'" font-size="10">2%</text>
<text transform="matrix(1 0 0 1 81.6172 315.3428)" fill="#333333" font-family="'SimHei'" font-size="10">4%</text>
<text transform="matrix(1 0 0 1 81.6172 299.9648)" fill="#333333" font-family="'SimHei'" font-size="10">6%</text>
<text transform="matrix(1 0 0 1 81.6172 284.5869)" fill="#333333" font-family="'SimHei'" font-size="10">8%</text>
<text transform="matrix(1 0 0 1 76.6172 269.209)" fill="#333333" font-family="'SimHei'" font-size="10">10%</text>
<text transform="matrix(1 0 0 1 76.6172 253.8311)" fill="#333333" font-family="'SimHei'" font-size="10">12%</text>
<g>
	<rect id="Rectangle-421-Copy-57_13_" x="101.616" y="342.099" fill="#EEEEEE" width="432.569" height="1"/>
	<rect id="Rectangle-421-Copy-57_12_" x="101.616" y="326.721" fill="#EEEEEE" width="432.569" height="1"/>
	<rect id="Rectangle-421-Copy-57_11_" x="101.616" y="311.343" fill="#EEEEEE" width="432.569" height="1"/>
	<rect id="Rectangle-421-Copy-57_10_" x="101.616" y="295.965" fill="#EEEEEE" width="432.569" height="1"/>
	<rect id="Rectangle-421-Copy-57_9_" x="101.616" y="280.587" fill="#EEEEEE" width="432.569" height="1"/>
	<rect id="Rectangle-421-Copy-57_8_" x="101.616" y="265.209" fill="#EEEEEE" width="432.569" height="1"/>
	<rect id="Rectangle-421-Copy-57_7_" x="101.616" y="249.831" fill="#EEEEEE" width="432.569" height="1"/>
</g>
<rect id="Rectangle-26-Copy-5_22_" x="126.813" y="273.25" fill="#D34843" width="16" height="69.85"/>
<text transform="matrix(1 0 0 1 157.8145 358.5986)" fill="#333333" font-family="'SimHei'" font-size="10">8.00元</text>
<rect id="Rectangle-26-Copy-5_21_" x="164.813" y="296.465" fill="#FD671B" width="16" height="46.635"/>
<text transform="matrix(1 0 0 1 195.8145 358.5986)" fill="#333333" font-family="'SimHei'" font-size="10">8.05元</text>
<rect id="Rectangle-26-Copy-5_20_" x="202.813" y="319.782" fill="#EB815A" width="16" height="23.317"/>
<text transform="matrix(1 0 0 1 233.8145 358.5986)" fill="#333333" font-family="'SimHei'" font-size="10">8.10元</text>
<rect id="Rectangle-26-Copy-5_19_" x="240.813" y="288.75" fill="#FFBD00" width="16" height="54.35"/>
<text transform="matrix(1 0 0 1 271.8145 358.5986)" fill="#333333" font-family="'SimHei'" font-size="10">8.15元</text>
<rect id="Rectangle-26-Copy-5_18_" x="278.813" y="334.501" fill="#64B5F6" width="16" height="8.599"/>
<text transform="matrix(1 0 0 1 309.8145 358.5986)" fill="#333333" font-family="'SimHei'" font-size="10">8.20元</text>
<rect id="Rectangle-26-Copy-5_17_" x="316.813" y="311.343" fill="#8D8D8D" width="16" height="31.757"/>
<text transform="matrix(1 0 0 1 347.8145 358.5986)" fill="#333333" font-family="'SimHei'" font-size="10">8.25元</text>
<rect id="Rectangle-26-Copy-5_16_" x="354.813" y="266.209" fill="#3786C8" width="16" height="76.891"/>
<text transform="matrix(1 0 0 1 385.8145 358.5986)" fill="#333333" font-family="'SimHei'" font-size="10">8.30元</text>
<rect id="Rectangle-26-Copy-5_15_" x="392.813" y="296.434" fill="#ED7E2F" width="16" height="46.666"/>
<text transform="matrix(1 0 0 1 423.8145 358.5986)" fill="#333333" font-family="'SimHei'" font-size="10">8.35元</text>
<rect id="Rectangle-26-Copy-5_14_" x="430.813" y="326.969" fill="#88B7C1" width="16" height="16.131"/>
<text transform="matrix(1 0 0 1 461.8145 358.5986)" fill="#333333" font-family="'SimHei'" font-size="10">8.40元</text>
<rect id="Rectangle-26-Copy-5_13_" x="468.813" y="288.221" fill="#74AC4B" width="16" height="54.879"/>
<text transform="matrix(1 0 0 1 499.8145 358.5986)" fill="#333333" font-family="'SimHei'" font-size="10">8.45元</text>
<rect id="Rectangle-26-Copy-5_12_" x="506.813" y="281.587" fill="#FFB07B" width="16" height="61.513"/>
<text transform="matrix(1 0 0 1 61.0908 269.209)" fill="#474747" font-family="'SimHei'" font-size="12" glyph-orientation-vertical="0" writing-mode="tb">出现的频率</text>
<text transform="matrix(1 0 0 1 131.8125 278.4063)" fill="#FFFFFF" font-family="'SimHei'" font-size="6">9%</text>
<text transform="matrix(1 0 0 1 397.8125 301.5898)" fill="#FFFFFF" font-family="'SimHei'" font-size="6">6%</text>
<text transform="matrix(1 0 0 1 435.8125 332.125)" fill="#FFFFFF" font-family="'SimHei'" font-size="6">2%</text>
<text transform="matrix(1 0 0 1 473.8125 293.377)" fill="#FFFFFF" font-family="'SimHei'" font-size="6">7%</text>
<text transform="matrix(1 0 0 1 511.8125 286.7432)" fill="#FFFFFF" font-family="'SimHei'" font-size="6">8%</text>
<text transform="matrix(1 0 0 1 169.8125 301.6211)" fill="#FFFFFF" font-family="'SimHei'" font-size="6">6%</text>
<text transform="matrix(1 0 0 1 207.8135 324.9385)" fill="#FFFFFF" font-family="'SimHei'" font-size="6">3%</text>
<text transform="matrix(1 0 0 1 283.8125 339.6572)" fill="#FFFFFF" font-family="'SimHei'" font-size="6">1%</text>
<text transform="matrix(1 0 0 1 321.8125 316.499)" fill="#FFFFFF" font-family="'SimHei'" font-size="6">4%</text>
<text transform="matrix(1 0 0 1 358.3135 271.3652)" fill="#FFFFFF" font-family="'SimHei'" font-size="6">10%</text>
<text transform="matrix(1 0 0 1 245.8135 293.9063)" fill="#FFFFFF" font-family="'SimHei'" font-size="6">7%</text>
</svg>
