<?xml version="1.0" encoding="utf-8"?>
<!-- Generator: Adobe Illustrator 16.0.0, SVG Export Plug-In . SVG Version: 6.00 Build 0)  -->
<!DOCTYPE svg PUBLIC "-//W3C//DTD SVG 1.1//EN" "http://www.w3.org/Graphics/SVG/1.1/DTD/svg11.dtd">
<svg version="1.1" id="图层_1" xmlns="http://www.w3.org/2000/svg" xmlns:xlink="http://www.w3.org/1999/xlink" x="0px" y="0px"
	 width="595.275px" height="595.275px" viewBox="0 0 595.275 595.275" enable-background="new 0 0 595.275 595.275"
	 xml:space="preserve">
<g>
	<text transform="matrix(1 0 0 1 203.791 189.7407)" fill="#474747" font-family="'SimHei'" font-size="14">2017年不同鞋类的价格变化汇总</text>
</g>
<g>
	<text transform="matrix(1 0 0 1 277.792 402.8511)" fill="#474747" font-family="'SimHei'" font-size="12">不同鞋类</text>
</g>
<g>
	<text transform="matrix(1 0 0 1 81.6172 364.8979)" fill="#333333" font-family="'SimHei'" font-size="10">50</text>
</g>
<text transform="matrix(1 0 0 1 119.8145 377.3979)" fill="#333333" font-family="'SimHei'" font-size="10">雨鞋</text>
<text transform="matrix(1 0 0 1 81.6172 349.52)" fill="#333333" font-family="'SimHei'" font-size="10">75</text>
<text transform="matrix(1 0 0 1 76.6172 334.1421)" fill="#333333" font-family="'SimHei'" font-size="10">100</text>
<text transform="matrix(1 0 0 1 76.6172 318.7642)" fill="#333333" font-family="'SimHei'" font-size="10">125</text>
<text transform="matrix(1 0 0 1 76.6172 303.3862)" fill="#333333" font-family="'SimHei'" font-size="10">150</text>
<text transform="matrix(1 0 0 1 76.6172 288.0083)" fill="#333333" font-family="'SimHei'" font-size="10">175</text>
<text transform="matrix(1 0 0 1 76.6172 272.6304)" fill="#333333" font-family="'SimHei'" font-size="10">200</text>
<text transform="matrix(1 0 0 1 195.8145 377.3979)" fill="#333333" font-family="'SimHei'" font-size="10">布鞋</text>
<text transform="matrix(1 0 0 1 271.8145 377.3979)" fill="#333333" font-family="'SimHei'" font-size="10">皮鞋</text>
<text transform="matrix(1 0 0 1 342.8145 377.3979)" fill="#333333" font-family="'SimHei'" font-size="10">运动鞋</text>
<text transform="matrix(1 0 0 1 418.8145 377.3979)" fill="#333333" font-family="'SimHei'" font-size="10">篮球鞋</text>
<text transform="matrix(1 0 0 1 499.8145 377.3979)" fill="#333333" font-family="'SimHei'" font-size="10">板鞋</text>
<text transform="matrix(1 0 0 1 61.0908 265.6958)" writing-mode="tb"><tspan x="0" y="0" fill="#474747" font-family="'SimHei'" font-size="12" glyph-orientation-vertical="0">价格</tspan><tspan x="0" y="24" fill="#474747" font-family="'SimHei'" font-size="12" glyph-orientation-vertical="1">(</tspan><tspan x="0" y="30" fill="#474747" font-family="'SimHei'" font-size="12" glyph-orientation-vertical="0">美元</tspan><tspan x="0" y="54" fill="#474747" font-family="'SimHei'" font-size="12" glyph-orientation-vertical="1">)</tspan></text>
<text transform="matrix(1 0 0 1 76.6172 257.2554)" fill="#333333" font-family="'SimHei'" font-size="10">225</text>
<text transform="matrix(1 0 0 1 76.6172 241.8804)" fill="#333333" font-family="'SimHei'" font-size="10">250</text>
<text transform="matrix(1 0 0 1 76.6172 226.5054)" fill="#333333" font-family="'SimHei'" font-size="10">275</text>
<g>
	<rect id="Rectangle-421-Copy-57_70_" x="101.616" y="360.898" fill="#EEEEEE" width="432.569" height="1"/>
	<rect id="Rectangle-421-Copy-57_69_" x="101.616" y="345.521" fill="#EEEEEE" width="432.569" height="1"/>
	<rect id="Rectangle-421-Copy-57_68_" x="101.616" y="330.142" fill="#EEEEEE" width="432.569" height="1"/>
	<rect id="Rectangle-421-Copy-57_67_" x="101.616" y="314.765" fill="#EEEEEE" width="432.569" height="1"/>
	<rect id="Rectangle-421-Copy-57_66_" x="101.616" y="299.386" fill="#EEEEEE" width="432.569" height="1"/>
	<rect id="Rectangle-421-Copy-57_65_" x="101.616" y="284.009" fill="#EEEEEE" width="432.569" height="1"/>
	<rect id="Rectangle-421-Copy-57_64_" x="101.616" y="268.63" fill="#EEEEEE" width="432.569" height="1"/>
	<rect id="Rectangle-421-Copy-57_71_" x="101.616" y="253.255" fill="#EEEEEE" width="432.569" height="1"/>
	<rect id="Rectangle-421-Copy-57_72_" x="101.616" y="237.88" fill="#EEEEEE" width="432.569" height="1"/>
	<rect id="Rectangle-421-Copy-57_73_" x="101.616" y="222.505" fill="#EEEEEE" width="432.569" height="1"/>
</g>
<line fill="none" stroke="#AAAAAA" stroke-width="0.75" stroke-miterlimit="10" x1="131.041" y1="269.13" x2="131.041" y2="274.716"/>
<line fill="none" stroke="#AAAAAA" stroke-width="0.75" stroke-miterlimit="10" x1="131.041" y1="305.542" x2="131.041" y2="299.886"/>
<rect x="121.481" y="274.716" fill="#CECECE" stroke="#AAAAAA" stroke-width="0.75" stroke-miterlimit="10" width="19.118" height="25.17"/>
<line fill="none" stroke="#AAAAAA" stroke-width="0.75" stroke-miterlimit="10" x1="121.481" y1="290.55" x2="140.6" y2="290.55"/>
<line fill="none" stroke="#AAAAAA" stroke-width="0.75" stroke-miterlimit="10" x1="126.119" y1="269.13" x2="135.962" y2="269.13"/>
<line fill="none" stroke="#AAAAAA" stroke-width="0.75" stroke-miterlimit="10" x1="135.962" y1="305.542" x2="126.119" y2="305.542"/>
<line fill="none" stroke="#AAAAAA" stroke-width="0.75" stroke-miterlimit="10" x1="205.815" y1="238.472" x2="205.815" y2="244.058"/>
<line fill="none" stroke="#AAAAAA" stroke-width="0.75" stroke-miterlimit="10" x1="205.815" y1="284.431" x2="205.815" y2="280.564"/>
<rect x="196.255" y="244.058" fill="#CECECE" stroke="#AAAAAA" stroke-width="0.75" stroke-miterlimit="10" width="19.119" height="36.506"/>
<line fill="none" stroke="#AAAAAA" stroke-width="0.75" stroke-miterlimit="10" x1="196.255" y1="269.228" x2="215.374" y2="269.228"/>
<line fill="none" stroke="#AAAAAA" stroke-width="0.75" stroke-miterlimit="10" x1="200.894" y1="238.472" x2="210.735" y2="238.472"/>
<line fill="none" stroke="#AAAAAA" stroke-width="0.75" stroke-miterlimit="10" x1="210.735" y1="284.431" x2="200.894" y2="284.431"/>
<line fill="none" stroke="#AAAAAA" stroke-width="0.75" stroke-miterlimit="10" x1="281.815" y1="253.642" x2="281.815" y2="268.439"/>
<line fill="none" stroke="#AAAAAA" stroke-width="0.75" stroke-miterlimit="10" x1="281.815" y1="330.642" x2="281.815" y2="315.359"/>
<rect x="272.255" y="268.439" fill="#CECECE" stroke="#AAAAAA" stroke-width="0.75" stroke-miterlimit="10" width="19.119" height="46.92"/>
<line fill="none" stroke="#AAAAAA" stroke-width="0.75" stroke-miterlimit="10" x1="272.255" y1="291.019" x2="291.374" y2="291.019"/>
<line fill="none" stroke="#AAAAAA" stroke-width="0.75" stroke-miterlimit="10" x1="276.894" y1="253.642" x2="286.735" y2="253.642"/>
<line fill="none" stroke="#AAAAAA" stroke-width="0.75" stroke-miterlimit="10" x1="286.735" y1="330.642" x2="276.894" y2="330.642"/>
<g>
	
		<line fill="none" stroke="#AAAAAA" stroke-width="0.75" stroke-miterlimit="10" x1="357.815" y1="284.65" x2="357.815" y2="290.236"/>
	
		<line fill="none" stroke="#AAAAAA" stroke-width="0.75" stroke-miterlimit="10" x1="357.815" y1="330.564" x2="357.815" y2="321.73"/>
	
		<rect x="348.255" y="290.236" fill="#CECECE" stroke="#AAAAAA" stroke-width="0.75" stroke-miterlimit="10" width="19.119" height="31.494"/>
	
		<line fill="none" stroke="#AAAAAA" stroke-width="0.75" stroke-miterlimit="10" x1="348.255" y1="309.332" x2="367.374" y2="309.332"/>
	
		<line fill="none" stroke="#AAAAAA" stroke-width="0.75" stroke-miterlimit="10" x1="352.894" y1="284.65" x2="362.735" y2="284.65"/>
	
		<line fill="none" stroke="#AAAAAA" stroke-width="0.75" stroke-miterlimit="10" x1="362.735" y1="330.564" x2="352.894" y2="330.564"/>
</g>
<g>
	
		<line fill="none" stroke="#AAAAAA" stroke-width="0.75" stroke-miterlimit="10" x1="433.815" y1="269.072" x2="433.815" y2="283.978"/>
	
		<line fill="none" stroke="#AAAAAA" stroke-width="0.75" stroke-miterlimit="10" x1="433.815" y1="321.152" x2="433.815" y2="308.8"/>
	
		<rect x="424.255" y="283.978" fill="#CECECE" stroke="#AAAAAA" stroke-width="0.75" stroke-miterlimit="10" width="19.119" height="24.822"/>
	
		<line fill="none" stroke="#AAAAAA" stroke-width="0.75" stroke-miterlimit="10" x1="424.255" y1="299.541" x2="443.374" y2="299.541"/>
	
		<line fill="none" stroke="#AAAAAA" stroke-width="0.75" stroke-miterlimit="10" x1="428.894" y1="269.072" x2="438.735" y2="269.072"/>
	
		<line fill="none" stroke="#AAAAAA" stroke-width="0.75" stroke-miterlimit="10" x1="438.735" y1="321.152" x2="428.894" y2="321.152"/>
</g>
<line fill="none" stroke="#AAAAAA" stroke-width="0.75" stroke-miterlimit="10" x1="509.815" y1="284.603" x2="509.815" y2="290.189"/>
<line fill="none" stroke="#AAAAAA" stroke-width="0.75" stroke-miterlimit="10" x1="509.815" y1="336.392" x2="509.815" y2="330.736"/>
<rect x="500.255" y="290.189" fill="#CECECE" stroke="#AAAAAA" stroke-width="0.75" stroke-miterlimit="10" width="19.119" height="40.547"/>
<line fill="none" stroke="#AAAAAA" stroke-width="0.75" stroke-miterlimit="10" x1="500.255" y1="300.064" x2="519.374" y2="300.064"/>
<line fill="none" stroke="#AAAAAA" stroke-width="0.75" stroke-miterlimit="10" x1="504.894" y1="284.603" x2="514.735" y2="284.603"/>
<line fill="none" stroke="#AAAAAA" stroke-width="0.75" stroke-miterlimit="10" x1="514.735" y1="336.392" x2="504.894" y2="336.392"/>
<text transform="matrix(1 0 0 1 136.9512 270.1304)" fill="#919191" font-family="'SimHei'" font-size="6">200</text>
<text transform="matrix(1 0 0 1 142.1699 275.8491)" fill="#919191" font-family="'SimHei'" font-size="6">190</text>
<text transform="matrix(1 0 0 1 142.1699 291.3677)" fill="#919191" font-family="'SimHei'" font-size="6">165</text>
<text transform="matrix(1 0 0 1 142.1699 300.9487)" fill="#919191" font-family="'SimHei'" font-size="6">150</text>
<text transform="matrix(1 0 0 1 136.9512 306.6987)" fill="#919191" font-family="'SimHei'" font-size="6">140</text>
<text transform="matrix(1 0 0 1 211.8262 239.4712)" fill="#919191" font-family="'SimHei'" font-size="6">250</text>
<text transform="matrix(1 0 0 1 217.0449 245.1899)" fill="#919191" font-family="'SimHei'" font-size="6">240</text>
<text transform="matrix(1 0 0 1 217.0449 270.2769)" fill="#919191" font-family="'SimHei'" font-size="6">200</text>
<text transform="matrix(1 0 0 1 217.0449 281.6265)" fill="#919191" font-family="'SimHei'" font-size="6">180</text>
<text transform="matrix(1 0 0 1 210.8262 286.5864)" fill="#919191" font-family="'SimHei'" font-size="6">175</text>
<text transform="matrix(1 0 0 1 287.7012 254.6421)" fill="#919191" font-family="'SimHei'" font-size="6">225</text>
<text transform="matrix(1 0 0 1 292.9199 269.5718)" fill="#919191" font-family="'SimHei'" font-size="6">200</text>
<text transform="matrix(1 0 0 1 292.9199 292.0679)" fill="#919191" font-family="'SimHei'" font-size="6">165</text>
<text transform="matrix(1 0 0 1 292.9199 316.4204)" fill="#919191" font-family="'SimHei'" font-size="6">125</text>
<text transform="matrix(1 0 0 1 287.7012 331.7983)" fill="#919191" font-family="'SimHei'" font-size="6">100</text>
<text transform="matrix(1 0 0 1 363.5762 285.6489)" fill="#919191" font-family="'SimHei'" font-size="6">175</text>
<text transform="matrix(1 0 0 1 368.7949 291.3677)" fill="#919191" font-family="'SimHei'" font-size="6">165</text>
<text transform="matrix(1 0 0 1 368.7949 310.3804)" fill="#919191" font-family="'SimHei'" font-size="6">135</text>
<text transform="matrix(1 0 0 1 368.7949 322.7925)" fill="#919191" font-family="'SimHei'" font-size="6">115</text>
<text transform="matrix(1 0 0 1 363.5762 331.7202)" fill="#919191" font-family="'SimHei'" font-size="6">100</text>
<text transform="matrix(1 0 0 1 440.4521 270.0718)" fill="#919191" font-family="'SimHei'" font-size="6">200</text>
<text transform="matrix(1 0 0 1 445.6709 285.1108)" fill="#919191" font-family="'SimHei'" font-size="6">175</text>
<text transform="matrix(1 0 0 1 445.6709 300.5884)" fill="#919191" font-family="'SimHei'" font-size="6">150</text>
<text transform="matrix(1 0 0 1 445.6709 309.8618)" fill="#919191" font-family="'SimHei'" font-size="6">135</text>
<text transform="matrix(1 0 0 1 440.4521 322.3081)" fill="#919191" font-family="'SimHei'" font-size="6">115</text>
<text transform="matrix(1 0 0 1 516.3271 285.6021)" fill="#919191" font-family="'SimHei'" font-size="6">175</text>
<text transform="matrix(1 0 0 1 521.5459 291.3208)" fill="#919191" font-family="'SimHei'" font-size="6">165</text>
<text transform="matrix(1 0 0 1 521.5459 301.1138)" fill="#919191" font-family="'SimHei'" font-size="6">150</text>
<text transform="matrix(1 0 0 1 521.5459 331.7983)" fill="#919191" font-family="'SimHei'" font-size="6">100</text>
<text transform="matrix(1 0 0 1 516.3271 337.5483)" fill="#919191" font-family="'SimHei'" font-size="6">90</text>
</svg>
