<?xml version="1.0" encoding="utf-8"?>
<!-- Generator: Adobe Illustrator 16.0.0, SVG Export Plug-In . SVG Version: 6.00 Build 0)  -->
<!DOCTYPE svg PUBLIC "-//W3C//DTD SVG 1.1//EN" "http://www.w3.org/Graphics/SVG/1.1/DTD/svg11.dtd">
<svg version="1.1" id="图层_1" xmlns="http://www.w3.org/2000/svg" xmlns:xlink="http://www.w3.org/1999/xlink" x="0px" y="0px"
	 width="595.275px" height="595.275px" viewBox="0 0 595.275 595.275" enable-background="new 0 0 595.275 595.275"
	 xml:space="preserve">
<g>
	<text transform="matrix(1 0 0 1 203.791 225.2744)" fill="#474747" font-family="'SimHei'" font-size="14">某商品价格在调查中出现的频率</text>
</g>
<g>
	<text transform="matrix(1 0 0 1 277.792 384.0518)" fill="#474747" font-family="'SimHei'" font-size="12">商品价格</text>
</g>
<g>
	<text transform="matrix(1 0 0 1 81.6172 346.0986)" fill="#333333" font-family="'SimHei'" font-size="10">0%</text>
</g>
<text transform="matrix(1 0 0 1 119.8145 358.5986)" fill="#333333" font-family="'SimHei'" font-size="10">7.95元</text>
<text transform="matrix(1 0 0 1 81.6172 330.7207)" fill="#333333" font-family="'SimHei'" font-size="10">2%</text>
<text transform="matrix(1 0 0 1 81.6172 315.3428)" fill="#333333" font-family="'SimHei'" font-size="10">4%</text>
<text transform="matrix(1 0 0 1 81.6172 299.9648)" fill="#333333" font-family="'SimHei'" font-size="10">6%</text>
<text transform="matrix(1 0 0 1 81.6172 284.5869)" fill="#333333" font-family="'SimHei'" font-size="10">8%</text>
<text transform="matrix(1 0 0 1 76.6172 269.209)" fill="#333333" font-family="'SimHei'" font-size="10">10%</text>
<text transform="matrix(1 0 0 1 76.6172 253.8311)" fill="#333333" font-family="'SimHei'" font-size="10">12%</text>
<g>
	<rect id="Rectangle-421-Copy-57_30_" x="101.616" y="342.099" fill="#EEEEEE" width="432.569" height="1"/>
	<rect id="Rectangle-421-Copy-57_1_" x="101.616" y="326.721" fill="#EEEEEE" width="432.569" height="1"/>
	<rect id="Rectangle-421-Copy-57_2_" x="101.616" y="311.343" fill="#EEEEEE" width="432.569" height="1"/>
	<rect id="Rectangle-421-Copy-57_3_" x="101.616" y="295.965" fill="#EEEEEE" width="432.569" height="1"/>
	<rect id="Rectangle-421-Copy-57_4_" x="101.616" y="280.587" fill="#EEEEEE" width="432.569" height="1"/>
	<rect id="Rectangle-421-Copy-57_5_" x="101.616" y="265.209" fill="#EEEEEE" width="432.569" height="1"/>
	<rect id="Rectangle-421-Copy-57_6_" x="101.616" y="249.831" fill="#EEEEEE" width="432.569" height="1"/>
</g>
<rect id="Rectangle-26-Copy-5_11_" x="126.813" y="296.465" fill="#C9C9C9" width="16" height="46.635"/>
<text transform="matrix(1 0 0 1 157.8145 358.5986)" fill="#333333" font-family="'SimHei'" font-size="10">8.00元</text>
<rect id="Rectangle-26-Copy-5_1_" x="164.813" y="303.096" fill="#C9C9C9" width="16" height="40.004"/>
<text transform="matrix(1 0 0 1 195.8145 358.5986)" fill="#333333" font-family="'SimHei'" font-size="10">8.05元</text>
<rect id="Rectangle-26-Copy-5_2_" x="202.813" y="281.587" fill="#C9C9C9" width="16" height="61.513"/>
<text transform="matrix(1 0 0 1 233.8145 358.5986)" fill="#333333" font-family="'SimHei'" font-size="10">8.10元</text>
<rect id="Rectangle-26-Copy-5_3_" x="240.813" y="257.555" fill="#C9C9C9" width="16" height="85.545"/>
<text transform="matrix(1 0 0 1 271.8145 358.5986)" fill="#333333" font-family="'SimHei'" font-size="10">8.15元</text>
<rect id="Rectangle-26-Copy-5_4_" x="278.813" y="327.721" fill="#C9C9C9" width="16" height="15.379"/>
<text transform="matrix(1 0 0 1 309.8145 358.5986)" fill="#333333" font-family="'SimHei'" font-size="10">8.20元</text>
<rect id="Rectangle-26-Copy-5_5_" x="316.813" y="318.783" fill="#C9C9C9" width="16" height="24.316"/>
<text transform="matrix(1 0 0 1 347.8145 358.5986)" fill="#333333" font-family="'SimHei'" font-size="10">8.25元</text>
<rect id="Rectangle-26-Copy-5_6_" x="354.813" y="281.087" fill="#C9C9C9" width="16" height="62.013"/>
<text transform="matrix(1 0 0 1 385.8145 358.5986)" fill="#333333" font-family="'SimHei'" font-size="10">8.30元</text>
<rect id="Rectangle-26-Copy-5_7_" x="392.813" y="296.434" fill="#C9C9C9" width="16" height="46.666"/>
<text transform="matrix(1 0 0 1 423.8145 358.5986)" fill="#333333" font-family="'SimHei'" font-size="10">8.35元</text>
<rect id="Rectangle-26-Copy-5_8_" x="430.813" y="273.221" fill="#C9C9C9" width="16" height="69.879"/>
<text transform="matrix(1 0 0 1 461.8145 358.5986)" fill="#333333" font-family="'SimHei'" font-size="10">8.40元</text>
<rect id="Rectangle-26-Copy-5_9_" x="468.813" y="288.221" fill="#C9C9C9" width="16" height="54.879"/>
<text transform="matrix(1 0 0 1 499.8145 358.5986)" fill="#333333" font-family="'SimHei'" font-size="10">8.45元</text>
<rect id="Rectangle-26-Copy-5_10_" x="506.813" y="311.843" fill="#C9C9C9" width="16" height="31.257"/>
<text transform="matrix(1 0 0 1 61.0908 269.209)" fill="#474747" font-family="'SimHei'" font-size="12" glyph-orientation-vertical="0" writing-mode="tb">出现的频率</text>
<text transform="matrix(1 0 0 1 131.8125 301.6211)" fill="#FFFFFF" font-family="'SimHei'" font-size="6">6%</text>
<text transform="matrix(1 0 0 1 397.8125 301.5898)" fill="#FFFFFF" font-family="'SimHei'" font-size="6">6%</text>
<text transform="matrix(1 0 0 1 435.8125 278.377)" fill="#FFFFFF" font-family="'SimHei'" font-size="6">9%</text>
<text transform="matrix(1 0 0 1 473.8125 293.377)" fill="#FFFFFF" font-family="'SimHei'" font-size="6">7%</text>
<text transform="matrix(1 0 0 1 511.8125 316.999)" fill="#FFFFFF" font-family="'SimHei'" font-size="6">4%</text>
<text transform="matrix(1 0 0 1 169.8125 308.252)" fill="#FFFFFF" font-family="'SimHei'" font-size="6">5%</text>
<text transform="matrix(1 0 0 1 207.8125 286.7432)" fill="#FFFFFF" font-family="'SimHei'" font-size="6">8%</text>
<text transform="matrix(1 0 0 1 283.8125 332.877)" fill="#FFFFFF" font-family="'SimHei'" font-size="6">2%</text>
<text transform="matrix(1 0 0 1 321.8125 323.9395)" fill="#FFFFFF" font-family="'SimHei'" font-size="6">3%</text>
<text transform="matrix(1 0 0 1 359.8125 286.2432)" fill="#FFFFFF" font-family="'SimHei'" font-size="6">8%</text>
<text transform="matrix(1 0 0 1 244.3125 262.7109)" fill="#FFFFFF" font-family="'SimHei'" font-size="6">11%</text>
<polygon fill="#B2B2B2" points="126.813,296.465 123.339,300.918 123.339,343.1 126.813,343.1 "/>
<polygon fill="#B2B2B2" points="202.813,281.587 199.339,286.039 199.339,343.1 202.813,343.1 "/>
<polygon fill="#B2B2B2" points="354.813,281.087 351.339,285.539 351.339,343.099 354.813,343.099 "/>
<polygon fill="#B2B2B2" points="430.813,273.221 427.339,277.674 427.339,343.1 430.813,343.1 "/>
<polygon fill="#B2B2B2" points="468.813,288.221 465.339,292.674 465.339,343.1 468.813,343.1 "/>
<polygon fill="#B2B2B2" points="506.813,311.843 503.339,316.295 503.339,343.1 506.813,343.1 "/>
<polygon fill="#B2B2B2" points="392.813,296.434 389.339,300.887 389.339,343.099 392.813,343.099 "/>
<polygon fill="#B2B2B2" points="240.813,257.555 237.339,262.007 237.339,343.099 240.813,343.099 "/>
<polygon fill="#B2B2B2" points="278.813,327.721 275.339,332.174 275.339,343.099 278.813,343.099 "/>
<polygon fill="#B2B2B2" points="316.813,318.783 313.339,323.236 313.339,343.1 316.813,343.1 "/>
<polygon fill="#B2B2B2" points="164.813,303.096 161.339,307.549 161.339,343.099 164.813,343.099 "/>
</svg>
